<?xml version="1.0" standalone="no"?>
<!DOCTYPE svg PUBLIC "-//W3C//DTD SVG 20010904//EN"
 "http://www.w3.org/TR/2001/REC-SVG-20010904/DTD/svg10.dtd">
<svg version="1.0" xmlns="http://www.w3.org/2000/svg"
 width="280.000000pt" height="280.000000pt" viewBox="0 0 280.000000 280.000000"
 preserveAspectRatio="xMidYMid meet">
<metadata>
Created by potrace 1.14, written by Peter Selinger 2001-2017
</metadata>
<g transform="translate(0.000000,280.000000) scale(0.100000,-0.100000)"
fill="#000000" stroke="none">
<path d="M1370 2758 c0 -6 -3 -8 -7 -5 -3 4 -18 -6 -32 -22 -26 -29 -26 -29
-25 -202 l2 -173 28 -22 c35 -28 68 -35 92 -18 11 7 22 10 26 7 3 -3 6 -1 6 6
0 7 4 10 9 6 17 -10 24 63 24 225 0 106 -4 155 -12 158 -6 2 -11 9 -11 16 0
12 -54 36 -83 36 -9 0 -17 -5 -17 -12z"/>
<path d="M471 2383 c-18 -19 -25 -37 -25 -68 0 -40 5 -46 122 -163 122 -120
123 -121 164 -117 69 7 103 65 82 142 -3 12 -15 25 -25 28 -10 4 -19 12 -19
20 0 8 -9 17 -20 20 -11 4 -19 9 -17 13 3 9 -71 81 -77 75 -2 -3 -7 5 -11 16
-3 12 -11 21 -16 21 -5 0 -18 9 -29 20 -30 30 -98 26 -129 -7z"/>
<path d="M2210 2402 c-17 -5 -84 -62 -75 -62 4 0 -14 -18 -39 -39 -25 -21 -43
-41 -40 -43 2 -3 -7 -11 -21 -18 -13 -7 -27 -22 -31 -32 -3 -10 -9 -16 -14
-13 -10 6 -20 -29 -20 -71 0 -32 37 -83 62 -85 7 0 23 -2 35 -5 12 -2 25 1 28
6 4 6 11 8 16 5 5 -4 9 -1 9 4 0 6 3 10 8 8 8 -2 211 198 213 211 14 96 -11
140 -81 140 -19 0 -42 -3 -50 -6z"/>
<path d="M1307 2134 c-2 -2 -66 -15 -84 -16 -7 -1 -13 -5 -13 -10 0 -5 -4 -7
-8 -4 -5 3 -20 -1 -35 -9 -15 -8 -27 -11 -27 -8 0 7 -130 -65 -147 -82 -8 -8
-18 -15 -22 -15 -4 0 -33 -25 -64 -55 -31 -30 -54 -55 -52 -55 2 0 -12 -23
-31 -51 -19 -28 -37 -62 -40 -75 -3 -13 -11 -24 -17 -24 -6 0 -7 -3 -4 -7 4
-3 2 -12 -4 -20 -6 -7 -9 -13 -6 -13 3 0 -1 -16 -9 -35 -8 -20 -17 -50 -19
-68 -9 -54 -10 -239 -2 -244 4 -2 7 -16 7 -31 0 -40 58 -192 73 -192 5 0 5 -4
2 -10 -3 -5 -1 -10 4 -10 6 0 11 -6 11 -12 1 -14 34 -57 93 -119 20 -22 37
-44 37 -49 0 -6 4 -10 8 -10 4 0 14 -15 21 -32 8 -18 15 -35 16 -38 2 -3 6
-15 10 -27 4 -13 11 -23 16 -23 5 0 6 -7 3 -15 -3 -8 -2 -20 2 -27 4 -7 8 -24
9 -38 2 -45 41 -98 93 -127 12 -7 54 -13 92 -13 l71 0 -4 38 c-1 20 -6 43 -10
49 -4 7 -8 27 -8 45 0 46 -5 93 -11 104 -3 5 -6 25 -6 45 -1 31 -31 111 -32
84 -1 -17 -43 56 -46 79 -3 25 -11 93 -19 156 -11 85 -12 140 -3 140 5 0 6 5
3 10 -7 11 59 81 73 79 4 -1 12 0 17 1 43 9 63 2 103 -37 23 -24 45 -43 47
-43 9 0 63 58 58 63 -2 3 5 10 16 17 13 6 21 7 21 1 0 -6 11 -6 28 -1 40 11
93 -22 119 -76 8 -16 10 -129 3 -129 -2 0 -4 -20 -6 -45 -9 -118 -13 -147 -27
-172 -8 -15 -17 -25 -20 -21 -4 3 -7 1 -7 -5 0 -7 -9 -21 -20 -32 -11 -11 -20
-34 -21 -52 -1 -52 -9 -110 -18 -127 -4 -9 -6 -31 -4 -50 2 -18 0 -31 -5 -27
-5 3 -8 -11 -6 -32 2 -20 3 -43 3 -49 1 -17 95 -17 142 -1 30 10 99 72 97 87
0 3 1 8 2 11 1 3 4 16 5 30 1 14 5 34 10 45 4 11 13 36 20 56 8 20 11 39 8 43
-4 3 -2 6 4 6 6 0 14 11 17 25 4 14 11 23 16 20 5 -3 11 4 15 15 4 12 25 39
47 60 22 22 37 40 34 40 -3 0 3 9 14 20 11 11 20 25 20 31 0 5 6 7 13 3 6 -4
9 -4 5 1 -4 4 2 21 13 36 11 16 21 38 22 49 1 11 4 20 8 20 6 0 34 81 31 93
-1 4 2 7 7 7 4 0 9 69 10 154 2 132 -1 162 -19 217 -23 69 -60 150 -73 160 -5
3 -8 10 -8 15 0 5 -9 19 -19 32 -11 12 -20 24 -20 26 0 4 -81 86 -86 86 -1 0
-18 14 -36 30 -18 17 -36 30 -41 30 -5 0 -21 9 -37 20 -15 11 -29 17 -32 14
-3 -2 -11 2 -18 11 -7 8 -20 15 -30 15 -9 0 -20 3 -24 7 -3 4 -12 8 -19 9 -7
2 -23 6 -37 9 -14 4 -34 8 -45 9 -11 2 -20 4 -20 6 0 2 -195 7 -198 4z m135
-413 c29 -12 72 -50 85 -76 24 -45 -3 -165 -37 -165 -6 0 -9 -5 -7 -12 1 -7
-2 -13 -8 -13 -5 -1 -17 -4 -25 -8 -25 -9 -70 -15 -70 -8 0 3 -12 7 -26 8 -16
0 -41 16 -61 36 -40 40 -53 102 -32 152 7 17 12 33 11 36 -1 4 13 14 31 23 18
8 28 16 22 17 -14 2 45 16 72 18 12 0 32 -3 45 -8z"/>
<path d="M160 1548 c0 -4 -7 -5 -15 -2 -8 4 -15 2 -15 -3 0 -6 -9 -20 -20 -33
-12 -13 -18 -30 -15 -38 3 -7 5 -22 5 -33 0 -11 12 -31 27 -45 26 -24 28 -25
201 -24 170 2 175 2 196 25 36 39 25 136 -17 150 -29 10 -347 12 -347 3z"/>
<path d="M2278 1531 c-28 -27 -44 -76 -27 -87 5 -3 7 -10 4 -15 -4 -5 5 -20
19 -34 25 -25 27 -25 201 -25 159 0 177 2 194 19 28 28 49 101 29 101 -6 0 -9
3 -5 6 3 3 -5 18 -18 32 -24 26 -25 26 -197 27 -171 1 -172 1 -200 -24z"/>
<path d="M650 854 c-22 -17 -37 -34 -33 -38 3 -3 -1 -6 -10 -6 -8 0 -19 -9
-22 -20 -4 -11 -9 -19 -13 -18 -4 2 -27 -17 -52 -42 -25 -24 -39 -40 -31 -36
10 6 12 5 7 -2 -4 -7 -13 -12 -20 -12 -7 0 -13 -6 -14 -12 -8 -68 -6 -97 5
-118 7 -14 13 -20 13 -15 0 6 5 3 10 -5 9 -17 69 -19 105 -4 23 9 199 184 215
214 16 29 5 109 -17 125 -22 17 -19 16 -65 19 -29 1 -47 -6 -78 -30z"/>
<path d="M2028 876 c3 -5 -2 -7 -11 -3 -11 4 -17 1 -17 -7 0 -7 -6 -19 -14
-25 -7 -6 -14 -29 -14 -52 -1 -37 5 -45 114 -154 63 -63 120 -116 127 -116 84
-8 127 22 130 91 1 35 -4 46 -26 66 -15 13 -27 27 -27 33 0 5 -9 13 -20 16
-11 4 -18 10 -15 14 2 4 -7 14 -20 21 -14 7 -25 17 -25 22 0 11 -61 68 -72 68
-5 0 -7 4 -4 9 3 5 -4 12 -17 16 -35 10 -96 11 -89 1z"/>
<path d="M1152 442 c-12 -2 -20 -8 -17 -13 4 -5 -1 -9 -9 -9 -9 0 -19 -12 -23
-27 -10 -42 -10 -116 1 -131 5 -7 6 -15 3 -18 -7 -7 35 -48 72 -70 18 -10 32
-29 36 -48 4 -17 9 -37 10 -44 2 -7 14 -21 27 -32 20 -17 39 -19 143 -19 99
-1 124 2 142 17 23 18 56 89 48 102 -3 5 8 14 25 22 16 7 30 16 30 20 0 5 9 8
20 8 12 0 17 5 14 14 -3 7 1 16 8 18 9 4 13 28 12 87 -2 89 -17 120 -58 121
-11 0 -29 0 -38 0 -10 1 -43 0 -73 0 -30 -1 -59 1 -64 4 -5 4 -12 2 -16 -4 -4
-6 -12 -7 -22 -1 -9 5 -29 5 -44 1 -15 -5 -30 -6 -33 -3 -7 7 -105 7 -112 0
-3 -3 -18 -2 -32 2 -15 4 -37 5 -50 3z"/>
</g>
</svg>
